<svg xmlns="http://www.w3.org/2000/svg" xmlns:xlink="http://www.w3.org/1999/xlink" width="1000" zoomAndPan="magnify" viewBox="0 0 750 374.999991" height="500" preserveAspectRatio="xMidYMid meet" version="1.0"><defs><g/><clipPath id="7e7d7b0b7d"><path d="M 37.5 85 L 284.25 85 L 284.25 298 L 37.5 298 Z M 37.5 85 " clip-rule="nonzero"/></clipPath><clipPath id="b663e58b54"><path d="M 83 77.003906 L 207 77.003906 L 207 228 L 83 228 Z M 83 77.003906 " clip-rule="nonzero"/></clipPath></defs><g clip-path="url(#7e7d7b0b7d)"><path fill="#38b593" d="M 156.539062 121.457031 C 158.441406 122.988281 158.742188 125.769531 157.210938 127.671875 C 155.683594 129.574219 152.902344 129.878906 151 128.347656 L 110.578125 95.699219 L 73.464844 125.886719 L 73.464844 221.820312 C 73.464844 223.945312 71.964844 225.722656 69.964844 226.152344 C 62.589844 228.183594 56.449219 232.679688 52.292969 238.574219 C 48.089844 244.527344 45.910156 251.914062 46.527344 259.628906 C 47.140625 267.34375 50.464844 274.289062 55.554688 279.5 C 60.640625 284.707031 67.503906 288.1875 75.195312 288.984375 C 82.890625 289.777344 90.328125 287.769531 96.378906 283.707031 C 102.421875 279.652344 107.09375 273.53125 109.273438 266.109375 C 109.839844 264.183594 111.601562 262.929688 113.511719 262.933594 L 113.511719 262.921875 L 186.152344 262.921875 L 199.171875 249.90625 C 200.898438 248.175781 203.703125 248.175781 205.433594 249.90625 C 205.625 250.097656 205.796875 250.304688 205.945312 250.523438 L 216.894531 263.527344 L 224.636719 253.464844 C 226.128906 251.535156 228.902344 251.179688 230.832031 252.671875 C 231.03125 252.824219 231.214844 252.996094 231.378906 253.175781 L 231.382812 253.171875 L 241.132812 263.730469 L 250.386719 251.800781 C 251.875 249.871094 254.652344 249.511719 256.582031 251.003906 C 256.859375 251.222656 257.109375 251.46875 257.324219 251.730469 L 257.328125 251.730469 L 265.28125 261.632812 L 273.90625 251.1875 L 267.035156 242.875 L 109.976562 242.875 C 107.53125 242.875 105.546875 240.886719 105.546875 238.441406 C 105.546875 235.996094 107.53125 234.011719 109.976562 234.011719 L 269.117188 234.011719 L 269.117188 234.019531 C 270.390625 234.019531 271.648438 234.5625 272.527344 235.625 L 283.046875 248.359375 L 283.039062 248.367188 C 284.359375 249.960938 284.414062 252.324219 283.046875 253.984375 L 268.785156 271.265625 C 268.566406 271.558594 268.304688 271.832031 268.007812 272.074219 C 266.109375 273.601562 263.324219 273.296875 261.796875 271.398438 L 253.949219 261.636719 L 245.046875 273.105469 C 244.867188 273.359375 244.660156 273.601562 244.421875 273.820312 C 242.628906 275.476562 239.828125 275.359375 238.175781 273.5625 L 228.441406 263.019531 L 220.554688 273.265625 L 220.546875 273.261719 C 220.359375 273.507812 220.140625 273.734375 219.894531 273.941406 C 218.03125 275.507812 215.25 275.269531 213.683594 273.40625 L 202.035156 259.574219 L 191.167969 270.441406 C 190.359375 271.273438 189.234375 271.789062 187.984375 271.789062 L 116.675781 271.789062 C 113.585938 279.820312 108.128906 286.464844 101.292969 291.054688 C 93.574219 296.234375 84.101562 298.792969 74.292969 297.78125 C 64.476562 296.769531 55.71875 292.324219 49.21875 285.667969 C 42.722656 279.015625 38.484375 270.164062 37.699219 260.332031 C 36.917969 250.503906 39.699219 241.089844 45.058594 233.496094 C 49.792969 226.789062 56.539062 221.5 64.605469 218.589844 L 64.605469 123.808594 L 64.621094 123.808594 C 64.621094 122.527344 65.179688 121.253906 66.253906 120.386719 L 107.679688 86.691406 C 109.261719 85.316406 111.652344 85.222656 113.34375 86.585938 L 156.542969 121.472656 Z M 100.992188 116.734375 L 108.222656 116.734375 L 108.222656 123.964844 L 100.992188 123.964844 Z M 112.125 116.734375 L 119.355469 116.734375 L 119.355469 123.964844 L 112.125 123.964844 Z M 119.355469 127.867188 L 119.355469 135.101562 L 112.125 135.101562 L 112.125 127.867188 Z M 108.222656 135.101562 L 100.992188 135.101562 L 100.992188 127.867188 L 108.222656 127.867188 Z M 78.179688 247.351562 C 83.804688 247.351562 88.367188 251.914062 88.367188 257.542969 C 88.367188 263.167969 83.804688 267.730469 78.179688 267.730469 C 72.550781 267.730469 67.988281 263.171875 67.988281 257.542969 C 67.988281 251.917969 72.546875 247.351562 78.179688 247.351562 Z M 78.179688 247.351562 " fill-opacity="1" fill-rule="evenodd"/></g><g clip-path="url(#b663e58b54)"><path fill="#373435" d="M 206.933594 223.476562 C 206.933594 225.925781 204.945312 227.910156 202.5 227.910156 L 169.550781 227.910156 C 167.101562 227.910156 165.117188 225.925781 165.117188 223.476562 L 165.117188 182.355469 L 123.074219 147.816406 L 90.441406 175.351562 C 88.574219 176.925781 85.785156 176.695312 84.207031 174.832031 C 82.632812 172.964844 82.863281 170.175781 84.726562 168.597656 L 120.171875 138.695312 L 120.175781 138.699219 C 121.773438 137.34375 124.15625 137.28125 125.832031 138.660156 L 172.054688 176.628906 C 173.214844 177.425781 173.976562 178.765625 173.976562 180.28125 L 173.976562 219.046875 L 198.066406 219.046875 L 198.066406 116.296875 L 159.335938 87 L 144.296875 98.75 C 142.375 100.25 139.601562 99.910156 138.105469 97.992188 C 136.605469 96.070312 136.945312 93.296875 138.863281 91.796875 L 156.351562 78.132812 C 157.898438 76.746094 160.253906 76.601562 161.96875 77.894531 L 204.964844 110.417969 C 206.152344 111.21875 206.933594 112.566406 206.933594 114.101562 Z M 113.214844 173.21875 L 120.445312 173.21875 L 120.445312 180.449219 L 113.214844 180.449219 Z M 124.351562 173.21875 L 131.582031 173.21875 L 131.582031 180.449219 L 124.351562 180.449219 Z M 131.582031 184.351562 L 131.582031 191.585938 L 124.351562 191.585938 L 124.351562 184.351562 Z M 120.445312 191.585938 L 113.214844 191.585938 L 113.214844 184.351562 L 120.445312 184.351562 Z M 120.445312 191.585938 " fill-opacity="1" fill-rule="nonzero"/></g><g fill="#38b593" fill-opacity="1"><g transform="translate(286.811885, 218.649874)"><g><path d="M 42.671875 0 L 26.71875 -27.390625 L 16.140625 -27.390625 L 16.140625 0 L 7.40625 0 L 7.40625 -66.984375 L 29.015625 -66.984375 C 34.078125 -66.984375 38.351562 -66.113281 41.84375 -64.375 C 45.332031 -62.644531 47.941406 -60.304688 49.671875 -57.359375 C 51.410156 -54.421875 52.28125 -51.0625 52.28125 -47.28125 C 52.28125 -42.664062 50.945312 -38.59375 48.28125 -35.0625 C 45.625 -31.539062 41.640625 -29.207031 36.328125 -28.0625 L 53.140625 0 Z M 16.140625 -34.40625 L 29.015625 -34.40625 C 33.753906 -34.40625 37.304688 -35.570312 39.671875 -37.90625 C 42.046875 -40.25 43.234375 -43.375 43.234375 -47.28125 C 43.234375 -51.25 42.066406 -54.320312 39.734375 -56.5 C 37.398438 -58.675781 33.828125 -59.765625 29.015625 -59.765625 L 16.140625 -59.765625 Z M 16.140625 -34.40625 "/></g></g></g><g fill="#38b593" fill-opacity="1"><g transform="translate(343.3079, 218.649874)"><g><path d="M 55.453125 -28.34375 C 55.453125 -26.675781 55.351562 -24.914062 55.15625 -23.0625 L 13.0625 -23.0625 C 13.382812 -17.875 15.160156 -13.820312 18.390625 -10.90625 C 21.628906 -7.988281 25.554688 -6.53125 30.171875 -6.53125 C 33.953125 -6.53125 37.109375 -7.410156 39.640625 -9.171875 C 42.171875 -10.929688 43.945312 -13.285156 44.96875 -16.234375 L 54.390625 -16.234375 C 52.984375 -11.171875 50.164062 -7.054688 45.9375 -3.890625 C 41.707031 -0.722656 36.453125 0.859375 30.171875 0.859375 C 25.171875 0.859375 20.703125 -0.257812 16.765625 -2.5 C 12.828125 -4.738281 9.734375 -7.921875 7.484375 -12.046875 C 5.242188 -16.179688 4.125 -20.972656 4.125 -26.421875 C 4.125 -31.867188 5.210938 -36.640625 7.390625 -40.734375 C 9.578125 -44.835938 12.640625 -47.992188 16.578125 -50.203125 C 20.515625 -52.421875 25.046875 -53.53125 30.171875 -53.53125 C 35.171875 -53.53125 39.59375 -52.4375 43.4375 -50.25 C 47.28125 -48.070312 50.242188 -45.078125 52.328125 -41.265625 C 54.410156 -37.453125 55.453125 -33.144531 55.453125 -28.34375 Z M 46.40625 -30.171875 C 46.40625 -33.503906 45.671875 -36.367188 44.203125 -38.765625 C 42.734375 -41.171875 40.734375 -43 38.203125 -44.25 C 35.671875 -45.5 32.863281 -46.125 29.78125 -46.125 C 25.363281 -46.125 21.601562 -44.710938 18.5 -41.890625 C 15.394531 -39.078125 13.617188 -35.171875 13.171875 -30.171875 Z M 46.40625 -30.171875 "/></g></g></g><g fill="#38b593" fill-opacity="1"><g transform="translate(400.956897, 218.649874)"><g><path d="M 33.0625 -53.625 C 39.46875 -53.625 44.65625 -51.6875 48.625 -47.8125 C 52.59375 -43.9375 54.578125 -38.34375 54.578125 -31.03125 L 54.578125 0 L 45.9375 0 L 45.9375 -29.78125 C 45.9375 -35.039062 44.617188 -39.0625 41.984375 -41.84375 C 39.359375 -44.632812 35.773438 -46.03125 31.234375 -46.03125 C 26.617188 -46.03125 22.945312 -44.585938 20.21875 -41.703125 C 17.5 -38.816406 16.140625 -34.617188 16.140625 -29.109375 L 16.140625 0 L 7.40625 0 L 7.40625 -52.65625 L 16.140625 -52.65625 L 16.140625 -45.15625 C 17.867188 -47.851562 20.222656 -49.9375 23.203125 -51.40625 C 26.179688 -52.882812 29.46875 -53.625 33.0625 -53.625 Z M 33.0625 -53.625 "/></g></g></g><g fill="#38b593" fill-opacity="1"><g transform="translate(460.527534, 218.649874)"><g><path d="M 18.0625 -45.453125 L 18.0625 -14.40625 C 18.0625 -11.84375 18.601562 -10.035156 19.6875 -8.984375 C 20.78125 -7.929688 22.675781 -7.40625 25.375 -7.40625 L 31.8125 -7.40625 L 31.8125 0 L 23.921875 0 C 19.054688 0 15.40625 -1.117188 12.96875 -3.359375 C 10.539062 -5.597656 9.328125 -9.28125 9.328125 -14.40625 L 9.328125 -45.453125 L 2.5 -45.453125 L 2.5 -52.65625 L 9.328125 -52.65625 L 9.328125 -65.921875 L 18.0625 -65.921875 L 18.0625 -52.65625 L 31.8125 -52.65625 L 31.8125 -45.453125 Z M 18.0625 -45.453125 "/></g></g></g><g fill="#000000" fill-opacity="1"><g transform="translate(493.589218, 218.649874)"><g><path d="M 16.140625 -59.859375 L 16.140625 -37.46875 L 40.546875 -37.46875 L 40.546875 -30.265625 L 16.140625 -30.265625 L 16.140625 -7.203125 L 43.4375 -7.203125 L 43.4375 0 L 7.40625 0 L 7.40625 -67.078125 L 43.4375 -67.078125 L 43.4375 -59.859375 Z M 16.140625 -59.859375 "/></g></g></g><g fill="#000000" fill-opacity="1"><g transform="translate(540.957442, 218.649874)"><g><path d="M 4.125 -26.515625 C 4.125 -31.898438 5.210938 -36.625 7.390625 -40.6875 C 9.578125 -44.757812 12.570312 -47.914062 16.375 -50.15625 C 20.1875 -52.40625 24.429688 -53.53125 29.109375 -53.53125 C 33.722656 -53.53125 37.726562 -52.535156 41.125 -50.546875 C 44.519531 -48.554688 47.050781 -46.054688 48.71875 -43.046875 L 48.71875 -52.65625 L 57.5625 -52.65625 L 57.5625 0 L 48.71875 0 L 48.71875 -9.796875 C 46.988281 -6.722656 44.410156 -4.175781 40.984375 -2.15625 C 37.554688 -0.144531 33.566406 0.859375 29.015625 0.859375 C 24.335938 0.859375 20.109375 -0.289062 16.328125 -2.59375 C 12.554688 -4.894531 9.578125 -8.128906 7.390625 -12.296875 C 5.210938 -16.460938 4.125 -21.203125 4.125 -26.515625 Z M 48.71875 -26.421875 C 48.71875 -30.398438 47.914062 -33.859375 46.3125 -36.796875 C 44.71875 -39.742188 42.554688 -42.003906 39.828125 -43.578125 C 37.109375 -45.148438 34.113281 -45.9375 30.84375 -45.9375 C 27.570312 -45.9375 24.59375 -45.164062 21.90625 -43.625 C 19.21875 -42.082031 17.070312 -39.835938 15.46875 -36.890625 C 13.863281 -33.953125 13.0625 -30.492188 13.0625 -26.515625 C 13.0625 -22.484375 13.863281 -18.976562 15.46875 -16 C 17.070312 -13.019531 19.21875 -10.742188 21.90625 -9.171875 C 24.59375 -7.609375 27.570312 -6.828125 30.84375 -6.828125 C 34.113281 -6.828125 37.109375 -7.609375 39.828125 -9.171875 C 42.554688 -10.742188 44.71875 -13.019531 46.3125 -16 C 47.914062 -18.976562 48.71875 -22.453125 48.71875 -26.421875 Z M 48.71875 -26.421875 "/></g></g></g><g fill="#000000" fill-opacity="1"><g transform="translate(603.987032, 218.649874)"><g><path d="M 26.046875 0.859375 C 22.003906 0.859375 18.378906 0.171875 15.171875 -1.203125 C 11.972656 -2.578125 9.441406 -4.5 7.578125 -6.96875 C 5.722656 -9.4375 4.703125 -12.269531 4.515625 -15.46875 L 13.546875 -15.46875 C 13.804688 -12.84375 15.039062 -10.695312 17.25 -9.03125 C 19.457031 -7.363281 22.351562 -6.53125 25.9375 -6.53125 C 29.269531 -6.53125 31.894531 -7.265625 33.8125 -8.734375 C 35.738281 -10.210938 36.703125 -12.070312 36.703125 -14.3125 C 36.703125 -16.625 35.675781 -18.335938 33.625 -19.453125 C 31.582031 -20.578125 28.414062 -21.6875 24.125 -22.78125 C 20.207031 -23.800781 17.015625 -24.835938 14.546875 -25.890625 C 12.085938 -26.953125 9.976562 -28.523438 8.21875 -30.609375 C 6.457031 -32.691406 5.578125 -35.429688 5.578125 -38.828125 C 5.578125 -41.515625 6.375 -43.976562 7.96875 -46.21875 C 9.570312 -48.457031 11.847656 -50.234375 14.796875 -51.546875 C 17.742188 -52.867188 21.109375 -53.53125 24.890625 -53.53125 C 30.710938 -53.53125 35.414062 -52.054688 39 -49.109375 C 42.59375 -46.160156 44.519531 -42.125 44.78125 -37 L 36.03125 -37 C 35.84375 -39.75 34.738281 -41.957031 32.71875 -43.625 C 30.695312 -45.289062 27.988281 -46.125 24.59375 -46.125 C 21.457031 -46.125 18.957031 -45.453125 17.09375 -44.109375 C 15.238281 -42.765625 14.3125 -41.003906 14.3125 -38.828125 C 14.3125 -37.097656 14.875 -35.671875 16 -34.546875 C 17.125 -33.421875 18.535156 -32.519531 20.234375 -31.84375 C 21.929688 -31.175781 24.285156 -30.425781 27.296875 -29.59375 C 31.066406 -28.570312 34.140625 -27.5625 36.515625 -26.5625 C 38.890625 -25.570312 40.921875 -24.082031 42.609375 -22.09375 C 44.304688 -20.113281 45.191406 -17.519531 45.265625 -14.3125 C 45.265625 -11.4375 44.460938 -8.84375 42.859375 -6.53125 C 41.253906 -4.226562 38.992188 -2.421875 36.078125 -1.109375 C 33.160156 0.203125 29.816406 0.859375 26.046875 0.859375 Z M 26.046875 0.859375 "/></g></g></g><g fill="#000000" fill-opacity="1"><g transform="translate(652.219996, 218.649874)"><g><path d="M 55.453125 -28.34375 C 55.453125 -26.675781 55.351562 -24.914062 55.15625 -23.0625 L 13.0625 -23.0625 C 13.382812 -17.875 15.160156 -13.820312 18.390625 -10.90625 C 21.628906 -7.988281 25.554688 -6.53125 30.171875 -6.53125 C 33.953125 -6.53125 37.109375 -7.410156 39.640625 -9.171875 C 42.171875 -10.929688 43.945312 -13.285156 44.96875 -16.234375 L 54.390625 -16.234375 C 52.984375 -11.171875 50.164062 -7.054688 45.9375 -3.890625 C 41.707031 -0.722656 36.453125 0.859375 30.171875 0.859375 C 25.171875 0.859375 20.703125 -0.257812 16.765625 -2.5 C 12.828125 -4.738281 9.734375 -7.921875 7.484375 -12.046875 C 5.242188 -16.179688 4.125 -20.972656 4.125 -26.421875 C 4.125 -31.867188 5.210938 -36.640625 7.390625 -40.734375 C 9.578125 -44.835938 12.640625 -47.992188 16.578125 -50.203125 C 20.515625 -52.421875 25.046875 -53.53125 30.171875 -53.53125 C 35.171875 -53.53125 39.59375 -52.4375 43.4375 -50.25 C 47.28125 -48.070312 50.242188 -45.078125 52.328125 -41.265625 C 54.410156 -37.453125 55.453125 -33.144531 55.453125 -28.34375 Z M 46.40625 -30.171875 C 46.40625 -33.503906 45.671875 -36.367188 44.203125 -38.765625 C 42.734375 -41.171875 40.734375 -43 38.203125 -44.25 C 35.671875 -45.5 32.863281 -46.125 29.78125 -46.125 C 25.363281 -46.125 21.601562 -44.710938 18.5 -41.890625 C 15.394531 -39.078125 13.617188 -35.171875 13.171875 -30.171875 Z M 46.40625 -30.171875 "/></g></g></g></svg>