<svg xmlns="http://www.w3.org/2000/svg" xmlns:xlink="http://www.w3.org/1999/xlink" width="500" zoomAndPan="magnify" viewBox="0 0 375 374.999991" height="500" preserveAspectRatio="xMidYMid meet" version="1.0"><defs><clipPath id="15945fc926"><path d="M 0 32 L 375 32 L 375 355.496094 L 0 355.496094 Z M 0 32 " clip-rule="nonzero"/></clipPath><clipPath id="afe665b73a"><path d="M 69 19.496094 L 258 19.496094 L 258 249 L 69 249 Z M 69 19.496094 " clip-rule="nonzero"/></clipPath></defs><g clip-path="url(#15945fc926)"><path fill="#38b593" d="M 181.003906 87.085938 C 183.894531 89.414062 184.355469 93.640625 182.027344 96.535156 C 179.703125 99.425781 175.472656 99.886719 172.582031 97.558594 L 111.121094 47.917969 L 54.691406 93.816406 L 54.691406 239.683594 C 54.691406 242.917969 52.410156 245.621094 49.367188 246.273438 C 38.15625 249.363281 28.816406 256.199219 22.496094 265.160156 C 16.109375 274.210938 12.796875 285.441406 13.730469 297.175781 C 14.664062 308.902344 19.71875 319.460938 27.457031 327.386719 C 35.191406 335.304688 45.625 340.597656 57.320312 341.808594 C 69.027344 343.015625 80.328125 339.960938 89.53125 333.785156 C 98.722656 327.617188 105.828125 318.3125 109.136719 307.023438 C 109.996094 304.097656 112.679688 302.195312 115.582031 302.199219 L 115.582031 302.183594 L 226.03125 302.183594 L 245.828125 282.386719 C 248.457031 279.757812 252.71875 279.757812 255.347656 282.386719 C 255.640625 282.679688 255.90625 282.996094 256.128906 283.328125 L 272.777344 303.097656 L 284.546875 287.800781 C 286.816406 284.867188 291.03125 284.324219 293.964844 286.59375 C 294.269531 286.828125 294.550781 287.085938 294.800781 287.359375 L 294.808594 287.355469 L 309.628906 303.410156 L 323.703125 285.269531 C 325.964844 282.335938 330.1875 281.792969 333.121094 284.058594 C 333.542969 284.390625 333.921875 284.765625 334.25 285.164062 L 334.253906 285.164062 L 346.351562 300.21875 L 359.460938 284.339844 L 349.015625 271.695312 L 110.210938 271.695312 C 106.492188 271.695312 103.472656 268.675781 103.472656 264.957031 C 103.472656 261.238281 106.492188 258.21875 110.210938 258.21875 L 352.175781 258.21875 L 352.175781 258.230469 C 354.113281 258.230469 356.027344 259.0625 357.363281 260.671875 L 373.359375 280.039062 L 373.347656 280.050781 C 375.359375 282.472656 375.4375 286.066406 373.359375 288.59375 L 351.671875 314.867188 C 351.339844 315.316406 350.945312 315.726562 350.492188 316.09375 C 347.605469 318.417969 343.371094 317.957031 341.050781 315.066406 L 329.117188 300.222656 L 315.582031 317.664062 C 315.308594 318.054688 314.992188 318.417969 314.632812 318.753906 C 311.90625 321.265625 307.648438 321.089844 305.132812 318.355469 L 290.332031 302.324219 L 278.339844 317.910156 L 278.328125 317.902344 C 278.042969 318.277344 277.710938 318.621094 277.339844 318.933594 C 274.503906 321.320312 270.273438 320.953125 267.890625 318.121094 L 250.179688 297.089844 L 233.65625 313.613281 C 232.429688 314.878906 230.71875 315.664062 228.816406 315.664062 L 120.390625 315.664062 C 115.699219 327.875 107.394531 337.972656 97.003906 344.953125 C 85.269531 352.832031 70.863281 356.722656 55.949219 355.1875 C 41.027344 353.644531 27.710938 346.882812 17.828125 336.765625 C 7.949219 326.652344 1.503906 313.1875 0.3125 298.242188 C -0.878906 283.296875 3.347656 268.984375 11.5 257.441406 C 18.699219 247.242188 28.953125 239.199219 41.21875 234.773438 L 41.21875 90.660156 L 41.242188 90.660156 C 41.242188 88.714844 42.089844 86.777344 43.722656 85.453125 L 106.714844 34.21875 C 109.121094 32.128906 112.753906 31.992188 115.324219 34.058594 L 181.007812 87.109375 Z M 96.542969 79.902344 L 107.539062 79.902344 L 107.539062 90.894531 L 96.542969 90.894531 Z M 113.476562 79.902344 L 124.46875 79.902344 L 124.46875 90.894531 L 113.476562 90.894531 Z M 124.46875 96.832031 L 124.46875 107.828125 L 113.476562 107.828125 L 113.476562 96.832031 Z M 107.539062 107.828125 L 96.542969 107.828125 L 96.542969 96.832031 L 107.539062 96.832031 Z M 61.859375 278.507812 C 70.414062 278.507812 77.351562 285.441406 77.351562 294 C 77.351562 302.554688 70.414062 309.492188 61.859375 309.492188 C 53.304688 309.492188 46.367188 302.5625 46.367188 294 C 46.367188 285.445312 53.296875 278.507812 61.859375 278.507812 Z M 61.859375 278.507812 " fill-opacity="1" fill-rule="evenodd"/></g><g clip-path="url(#afe665b73a)"><path fill="#373435" d="M 257.628906 242.207031 C 257.628906 245.925781 254.609375 248.945312 250.890625 248.945312 L 200.785156 248.945312 C 197.066406 248.945312 194.046875 245.925781 194.046875 242.207031 L 194.046875 179.679688 L 130.121094 127.164062 L 80.5 169.027344 C 77.664062 171.425781 73.425781 171.074219 71.023438 168.238281 C 68.628906 165.402344 68.980469 161.164062 71.816406 158.761719 L 125.707031 113.292969 L 125.714844 113.296875 C 128.140625 111.242188 131.769531 111.144531 134.3125 113.242188 L 204.597656 170.972656 C 206.363281 172.1875 207.519531 174.21875 207.519531 176.523438 L 207.519531 235.46875 L 244.148438 235.46875 L 244.148438 79.238281 L 185.257812 34.691406 L 162.394531 52.558594 C 159.472656 54.839844 155.253906 54.320312 152.972656 51.402344 C 150.695312 48.480469 151.214844 44.265625 154.132812 41.984375 L 180.722656 21.207031 C 183.070312 19.101562 186.652344 18.882812 189.257812 20.847656 L 254.636719 70.296875 C 256.441406 71.511719 257.628906 73.566406 257.628906 75.894531 Z M 115.128906 165.785156 L 126.125 165.785156 L 126.125 176.78125 L 115.128906 176.78125 Z M 132.0625 165.785156 L 143.054688 165.785156 L 143.054688 176.78125 L 132.0625 176.78125 Z M 143.054688 182.71875 L 143.054688 193.710938 L 132.0625 193.710938 L 132.0625 182.71875 Z M 126.125 193.710938 L 115.128906 193.710938 L 115.128906 182.71875 L 126.125 182.71875 Z M 126.125 193.710938 " fill-opacity="1" fill-rule="nonzero"/></g></svg>